<?xml version="1.0" encoding="utf-8"?>
<!-- Generator: Adobe Illustrator 25.2.3, SVG Export Plug-In . SVG Version: 6.00 Build 0)  -->
<svg version="1.1" id="Layer_1" xmlns="http://www.w3.org/2000/svg" xmlns:xlink="http://www.w3.org/1999/xlink" x="0px" y="0px"
	 viewBox="0 0 500 170.3" style="enable-background:new 0 0 500 170.3;" xml:space="preserve">
<style type="text/css">
	.st0{fill:none;stroke:#FFFFFF;stroke-width:13.6082;stroke-linecap:round;}
	.st1{fill:#FFFFFF;}
</style>
<line class="st0" x1="246.6" y1="20" x2="317.1" y2="78.7"/>
<polyline class="st0" points="97,80.5 166.5,20 236.9,78.7 "/>
<path class="st1" d="M20.9,130.3c-0.6,1.4-1.4,2.6-2.4,3.6c-1,1-2.2,1.8-3.7,2.3c-1.4,0.5-3,0.8-4.7,0.8c-1.5,0-2.8-0.1-4.1-0.4
	v16.9l-0.4,0.4H4.1l-0.5-0.4V116l0.4-0.4c2.1-0.1,4.2-0.2,6.3-0.2c1.8,0,3.4,0.2,4.8,0.5c1.4,0.4,2.6,1,3.6,1.8
	c1,0.8,1.7,1.9,2.2,3.2c0.5,1.3,0.8,2.9,0.8,4.8C21.7,127.4,21.4,128.9,20.9,130.3 M17,119.3c-1.6-1.2-3.8-1.9-6.6-1.9
	c-0.7,0-1.5,0-2.2,0c-0.7,0-1.5,0-2.2,0.1V135c0.7,0.1,1.3,0.2,2.1,0.2c0.7,0,1.4,0,2,0c3,0,5.2-0.9,6.9-2.6c1.6-1.7,2.4-4,2.4-7
	h0.1C19.3,122.6,18.6,120.5,17,119.3z"/>
<path class="st1" d="M47,130.5c-0.4-0.1-0.8-0.2-1.2-0.2c-0.4,0-0.8,0-1.2,0c-1,0-1.9,0.2-2.8,0.5c-0.9,0.4-1.7,0.9-2.4,1.5
	c-0.7,0.6-1.2,1.4-1.6,2.2c-0.4,0.9-0.6,1.8-0.6,2.8v16.3l-0.4,0.4h-1.4l-0.4-0.4v-25l0.4-0.4h1.4l0.4,0.4v3.5
	c1-1.3,2.2-2.4,3.6-3.1c1.4-0.7,2.9-1.1,4.6-1.1c0.3,0,0.6,0,0.9,0c0.3,0,0.6,0,0.9,0.1l0.4,0.4v1.6"/>
<path class="st1" d="M77.1,146.4c-0.5,1.6-1.2,3-2.2,4.2c-1,1.2-2.2,2.1-3.8,2.8c-1.5,0.7-3.3,1-5.3,1c-2,0-3.8-0.3-5.4-1
	c-1.5-0.7-2.8-1.6-3.8-2.8c-1-1.2-1.8-2.6-2.3-4.2c-0.5-1.6-0.7-3.4-0.7-5.4c0-2,0.2-3.9,0.7-5.5c0.5-1.6,1.2-3,2.2-4.1
	c1-1.1,2.2-2,3.8-2.6c1.5-0.6,3.4-0.9,5.5-0.9c2.2,0,4,0.3,5.5,0.9c1.5,0.6,2.8,1.5,3.8,2.6c1,1.1,1.7,2.5,2.1,4.2
	c0.5,1.6,0.7,3.5,0.7,5.5C77.9,142.9,77.6,144.7,77.1,146.4 M75.1,136.6c-0.4-1.4-0.9-2.6-1.7-3.6c-0.8-1-1.8-1.8-3-2.4
	c-1.2-0.6-2.7-0.8-4.5-0.8c-1.8,0-3.3,0.3-4.5,0.8c-1.3,0.6-2.3,1.3-3.1,2.3c-0.8,1-1.4,2.2-1.8,3.6c-0.4,1.4-0.6,2.9-0.6,4.5
	c0,1.5,0.2,3,0.6,4.4c0.4,1.4,1,2.6,1.8,3.6c0.8,1,1.9,1.9,3.1,2.5c1.2,0.6,2.7,0.9,4.4,0.9c1.7,0,3.1-0.3,4.4-0.9
	c1.2-0.6,2.3-1.4,3.1-2.5c0.8-1,1.4-2.2,1.8-3.6c0.4-1.4,0.6-2.8,0.6-4.4h0.1C75.6,139.4,75.4,137.9,75.1,136.6z"/>
<path class="st1" d="M109.6,145.1c-0.6,1.8-1.5,3.4-2.6,4.7c-1.2,1.4-2.5,2.5-4.2,3.3c-1.6,0.8-3.5,1.3-5.6,1.3c-1,0-2-0.1-3.1-0.2
	c-1-0.1-2-0.3-3-0.5v12.7l-0.4,0.4h-1.4l-0.4-0.4v-37.7l0.4-0.4h1.4l0.4,0.4v3.7c0.9-1.5,2.1-2.6,3.6-3.3c1.4-0.8,3-1.1,4.8-1.1
	c3.8,0,6.5,1,8.3,3.1c1.8,2.1,2.7,4.9,2.7,8.6C110.5,141.4,110.2,143.3,109.6,145.1 M107.7,135.6c-0.3-1.2-0.8-2.2-1.6-3.1
	c-0.7-0.9-1.6-1.5-2.7-2c-1.1-0.5-2.4-0.7-3.9-0.7c-1.4,0-2.5,0.3-3.6,0.8c-1,0.5-1.9,1.2-2.6,2.1c-0.7,0.9-1.3,1.9-1.6,3
	c-0.4,1.1-0.6,2.3-0.6,3.6v12.3c1,0.4,1.9,0.6,3,0.7c1,0.1,2,0.2,3.1,0.2c1.8,0,3.4-0.4,4.7-1.1c1.4-0.7,2.5-1.7,3.5-2.9
	c0.9-1.2,1.6-2.6,2.1-4.1c0.5-1.5,0.7-3.1,0.7-4.8C108.2,138.1,108,136.8,107.7,135.6z"/>
<path class="st1" d="M142.5,140.7c-3.1,0.1-6.3,0.2-9.4,0.3c-3.1,0.1-6.2,0.1-9.4,0.1c0,1.6,0.2,3.1,0.5,4.4
	c0.4,1.4,0.9,2.5,1.7,3.5c0.8,1,1.8,1.8,3,2.4c1.2,0.6,2.7,0.9,4.4,0.9c1,0,1.9-0.1,2.9-0.4c0.9-0.3,1.8-0.5,2.6-0.8
	c0.8-0.3,1.4-0.6,1.9-0.8c0.5-0.3,0.8-0.4,0.9-0.4c0.1,0,0.2,0.1,0.3,0.3c0.1,0.2,0.1,0.4,0.1,0.6c0,0.2,0,0.4,0,0.7
	c0,0.2,0,0.4,0,0.5l-0.2,0.4c-0.5,0.3-1.2,0.6-1.9,0.9c-0.7,0.3-1.4,0.5-2.2,0.6c-0.7,0.2-1.5,0.3-2.2,0.4c-0.7,0.1-1.4,0.1-2.1,0.1
	c-2.3,0-4.2-0.3-5.7-1c-1.5-0.7-2.7-1.7-3.7-2.9c-0.9-1.2-1.6-2.7-2-4.4c-0.4-1.7-0.6-3.6-0.6-5.8c0-1.8,0.3-3.5,0.8-5
	c0.5-1.5,1.3-2.8,2.2-3.9c1-1.1,2.2-1.9,3.7-2.6c1.5-0.6,3.1-0.9,5-0.9c1.9,0,3.5,0.3,4.7,1c1.3,0.7,2.3,1.6,3,2.8
	c0.7,1.2,1.3,2.5,1.6,4c0.3,1.5,0.5,3.1,0.5,4.7 M140.1,135.5c-0.3-1.1-0.8-2-1.4-2.9c-0.6-0.9-1.4-1.5-2.3-2
	c-0.9-0.5-2-0.8-3.3-0.8c-1.4,0-2.7,0.2-3.8,0.7c-1.1,0.5-2.1,1.1-3,1.9c-0.8,0.8-1.5,1.8-1.9,3c-0.5,1.2-0.7,2.4-0.7,3.8h1.6
	c2.6,0,5.1,0,7.7-0.1c2.5-0.1,5.1-0.2,7.7-0.4C140.6,137.6,140.4,136.5,140.1,135.5z"/>
<path class="st1" d="M165.4,130.5c-0.4-0.1-0.8-0.2-1.2-0.2c-0.4,0-0.8,0-1.2,0c-1,0-1.9,0.2-2.8,0.5c-0.9,0.4-1.7,0.9-2.4,1.5
	c-0.7,0.6-1.2,1.4-1.6,2.2c-0.4,0.9-0.6,1.8-0.6,2.8v16.3l-0.4,0.4h-1.4l-0.4-0.4v-25l0.4-0.4h1.4l0.4,0.4v3.5
	c1-1.3,2.2-2.4,3.6-3.1c1.4-0.7,2.9-1.1,4.6-1.1c0.3,0,0.6,0,0.9,0c0.3,0,0.6,0,0.9,0.1l0.4,0.4v1.6"/>
<path class="st1" d="M191.9,152.9c-0.8,0.5-1.8,0.9-2.9,1.1c-1.1,0.3-2.1,0.4-3,0.4c-1.3,0-2.4-0.2-3.3-0.6c-0.9-0.4-1.5-1-2-1.7
	c-0.5-0.7-0.8-1.6-1-2.6c-0.2-1-0.3-2.1-0.3-3.3v-15.2h-3.8l-0.5-0.4v-1.2l0.4-0.4h3.8c0.1-1.3,0.1-2.6,0.1-3.8c0-1.3,0-2.6,0.1-3.9
	l0.4-0.4h1.1l0.5,0.4v7.7h9.3l0.5,0.4v1.2l-0.4,0.4h-9.3v15.2c0,0.7,0.1,1.5,0.2,2.2c0.1,0.7,0.4,1.4,0.7,2c0.3,0.6,0.8,1.1,1.3,1.4
	c0.6,0.4,1.3,0.5,2.2,0.5c0.7,0,1.4-0.1,2-0.3c0.6-0.2,1.2-0.4,1.7-0.7c0.5-0.2,1-0.5,1.3-0.7c0.4-0.2,0.6-0.3,0.8-0.3
	c0.1,0,0.2,0.1,0.3,0.3c0.1,0.2,0.1,0.4,0.1,0.6c0,0.2,0,0.4,0,0.7c0,0.2,0,0.4,0,0.5"/>
<path class="st1" d="M223.5,130.1c-0.4,1-1,2.3-1.8,3.9c-0.7,1.6-1.6,3.4-2.5,5.5c-0.9,2.1-1.9,4.2-2.9,6.3c-1,2.2-2,4.3-2.9,6.4
	c-1,2.1-1.9,4-2.7,5.8c-0.8,1.7-1.5,3.2-2.1,4.4c-0.6,1.2-0.9,2-1.1,2.3l-0.4,0.2h-1.6c-0.1,0-0.2,0-0.3-0.1c-0.1,0-0.2-0.1-0.2-0.2
	c0-0.1,0.1-0.4,0.3-0.9c0.2-0.5,0.5-1.2,0.9-1.9c0.3-0.8,0.7-1.6,1.1-2.5c0.4-0.9,0.8-1.7,1.2-2.5c0.4-0.8,0.7-1.5,1-2.1
	c0.3-0.6,0.5-1,0.5-1.2c-0.1-0.3-0.5-1.2-1.1-2.5c-0.6-1.3-1.3-2.9-2-4.8c-0.8-1.8-1.6-3.8-2.5-5.8c-0.9-2.1-1.7-4-2.4-5.7
	c-0.7-1.7-1.3-3.2-1.8-4.4c-0.5-1.2-0.7-1.8-0.7-1.9c0-0.1,0.1-0.2,0.3-0.2c0.2-0.1,0.4-0.1,0.6-0.1c0.2,0,0.5,0,0.7,0
	c0.2,0,0.4,0,0.4,0l0.4,0.3l9.5,22.5c1.7-3.8,3.4-7.5,5-11.3c1.7-3.7,3.3-7.5,5-11.3l0.4-0.3h1.7c0.1,0,0.2,0,0.3,0.1
	c0.1,0.1,0.2,0.1,0.2,0.2C224.1,128.5,223.9,129.1,223.5,130.1"/>
<path class="st1" d="M272.2,130.3c-0.6,1.4-1.4,2.6-2.4,3.6c-1,1-2.2,1.8-3.7,2.3c-1.4,0.5-3,0.8-4.7,0.8c-1.5,0-2.8-0.1-4.1-0.4
	v16.9l-0.4,0.4h-1.5l-0.5-0.4V116l0.4-0.4c2.1-0.1,4.2-0.2,6.3-0.2c1.8,0,3.4,0.2,4.8,0.5c1.4,0.4,2.6,1,3.6,1.8
	c1,0.8,1.7,1.9,2.2,3.2c0.5,1.3,0.8,2.9,0.8,4.8C273.1,127.4,272.8,128.9,272.2,130.3 M268.4,119.3c-1.6-1.2-3.8-1.9-6.6-1.9
	c-0.7,0-1.5,0-2.2,0c-0.8,0-1.5,0-2.2,0.1V135c0.7,0.1,1.3,0.2,2.1,0.2c0.7,0,1.4,0,2,0c3,0,5.2-0.9,6.9-2.6c1.6-1.7,2.4-4,2.4-7
	h0.1C270.7,122.6,269.9,120.5,268.4,119.3z"/>
<path class="st1" d="M304.7,146.4c-0.5,1.6-1.2,3-2.2,4.2c-1,1.2-2.2,2.1-3.8,2.8c-1.5,0.7-3.3,1-5.3,1c-2,0-3.8-0.3-5.4-1
	c-1.5-0.7-2.8-1.6-3.8-2.8c-1-1.2-1.8-2.6-2.3-4.2c-0.5-1.6-0.7-3.4-0.7-5.4c0-2,0.2-3.9,0.7-5.5c0.5-1.6,1.2-3,2.2-4.1
	c1-1.1,2.2-2,3.8-2.6c1.5-0.6,3.4-0.9,5.5-0.9c2.2,0,4,0.3,5.5,0.9c1.5,0.6,2.8,1.5,3.8,2.6c1,1.1,1.7,2.5,2.1,4.2
	c0.5,1.6,0.7,3.5,0.7,5.5C305.4,142.9,305.2,144.7,304.7,146.4 M302.6,136.6c-0.4-1.4-0.9-2.6-1.7-3.6c-0.8-1-1.8-1.8-3-2.4
	c-1.2-0.6-2.7-0.8-4.5-0.8c-1.8,0-3.3,0.3-4.5,0.8c-1.3,0.6-2.3,1.3-3.1,2.3c-0.8,1-1.4,2.2-1.8,3.6c-0.4,1.4-0.6,2.9-0.6,4.5
	c0,1.5,0.2,3,0.6,4.4c0.4,1.4,1,2.6,1.8,3.6c0.8,1,1.9,1.9,3.1,2.5c1.2,0.6,2.7,0.9,4.4,0.9s3.1-0.3,4.4-0.9
	c1.2-0.6,2.3-1.4,3.1-2.5c0.8-1,1.4-2.2,1.8-3.6c0.4-1.4,0.6-2.8,0.6-4.4h0.1C303.2,139.4,303,137.9,302.6,136.6z"/>
<path class="st1" d="M339.9,146.4c-0.5,1.6-1.2,3-2.2,4.2c-1,1.2-2.2,2.1-3.8,2.8c-1.5,0.7-3.3,1-5.3,1c-2,0-3.8-0.3-5.4-1
	c-1.5-0.7-2.8-1.6-3.8-2.8c-1-1.2-1.8-2.6-2.3-4.2c-0.5-1.6-0.7-3.4-0.7-5.4c0-2,0.2-3.9,0.7-5.5c0.5-1.6,1.2-3,2.2-4.1
	c1-1.1,2.2-2,3.8-2.6c1.5-0.6,3.4-0.9,5.5-0.9c2.2,0,4,0.3,5.5,0.9c1.5,0.6,2.8,1.5,3.8,2.6c1,1.1,1.7,2.5,2.1,4.2
	c0.5,1.6,0.7,3.5,0.7,5.5C340.7,142.9,340.4,144.7,339.9,146.4 M337.9,136.6c-0.4-1.4-0.9-2.6-1.7-3.6c-0.8-1-1.8-1.8-3-2.4
	c-1.2-0.6-2.7-0.8-4.5-0.8c-1.8,0-3.3,0.3-4.5,0.8c-1.3,0.6-2.3,1.3-3.1,2.3c-0.8,1-1.4,2.2-1.8,3.6c-0.4,1.4-0.6,2.9-0.6,4.5
	c0,1.5,0.2,3,0.6,4.4c0.4,1.4,1,2.6,1.8,3.6c0.8,1,1.9,1.9,3.1,2.5c1.2,0.6,2.7,0.9,4.4,0.9c1.7,0,3.1-0.3,4.4-0.9
	c1.2-0.6,2.3-1.4,3.1-2.5c0.8-1,1.4-2.2,1.8-3.6c0.4-1.4,0.6-2.8,0.6-4.4h0.1C338.4,139.4,338.2,137.9,337.9,136.6z"/>
<path class="st1" d="M363.9,153.4c-0.5,0.4-1.2,0.6-1.9,0.8c-0.7,0.2-1.5,0.2-2.1,0.2c-1.9,0-3.5-0.4-4.6-1.3
	c-1.1-0.9-1.9-2-2.4-3.3c-0.5-1.3-0.9-2.8-1-4.5c-0.1-1.6-0.2-3.2-0.2-4.7V113l0.4-0.4h1.4l0.4,0.4c0,4.6,0,9.2,0,13.8
	c0,4.6,0,9.2,0,13.8c0,1.1,0,2.3,0.1,3.6c0.1,1.4,0.3,2.7,0.7,3.9c0.4,1.2,0.9,2.2,1.8,3.1c0.8,0.8,2,1.3,3.5,1.3
	c0.7,0,1.2-0.1,1.7-0.2c0.5-0.1,0.8-0.3,1.1-0.5c0.3-0.2,0.5-0.4,0.7-0.5c0.2-0.1,0.3-0.2,0.4-0.2c0.3,0.1,0.4,0.4,0.4,0.9
	c0,0.5,0,0.9,0,1.1"/>
<path class="st1" d="M412.6,130.7c-0.6,1.4-1.4,2.7-2.4,3.7c-1,1-2.3,1.8-3.7,2.4c-1.4,0.6-3,0.8-4.8,0.8c-0.5,0-1.1,0-1.6-0.1
	c-0.5,0-1.1-0.1-1.6-0.2V153c-0.1,0.2-0.2,0.4-0.4,0.6c-0.2,0.2-0.4,0.3-0.7,0.4h-1.6c-0.2-0.1-0.4-0.3-0.5-0.5
	c-0.2-0.2-0.3-0.4-0.4-0.6v-36.4c0.1-0.2,0.2-0.4,0.4-0.6c0.2-0.2,0.3-0.4,0.5-0.5c2.1-0.1,4.2-0.2,6.3-0.2c1.8,0,3.5,0.2,4.9,0.6
	c1.4,0.4,2.7,1,3.7,1.8c1,0.8,1.7,1.9,2.3,3.3c0.5,1.3,0.8,3,0.8,4.9C413.5,127.7,413.2,129.3,412.6,130.7 M409.4,121.6
	c-0.3-0.8-0.8-1.4-1.4-1.8c-0.6-0.4-1.4-0.7-2.3-0.9c-0.9-0.2-1.9-0.2-3.1-0.2c-0.7,0-1.5,0-2.2,0c-0.7,0-1.5,0-2.2,0.1v15.7
	c0.5,0.1,1.1,0.1,1.6,0.1c0.5,0,1.1,0,1.6,0c1.6,0,2.9-0.2,4-0.7c1.1-0.5,1.9-1.2,2.6-2c0.7-0.9,1.1-1.9,1.4-3.1
	c0.3-1.2,0.4-2.5,0.4-3.9C409.9,123.4,409.7,122.4,409.4,121.6z"/>
<path class="st1" d="M438.2,153.2c-0.6,0.4-1.3,0.7-2.1,0.9c-0.8,0.2-1.5,0.3-2.3,0.3c-2,0-3.6-0.4-4.7-1.3c-1.2-0.9-2-2-2.6-3.4
	c-0.6-1.4-0.9-2.9-1-4.5c-0.1-1.7-0.2-3.2-0.2-4.8v-26.7c0.1-0.2,0.2-0.3,0.3-0.5c0.1-0.1,0.2-0.2,0.3-0.4l0.4-0.2h1.4
	c0.2,0.1,0.4,0.2,0.6,0.4c0.2,0.2,0.4,0.4,0.4,0.6c0,4.5,0,8.9,0,13.3c0,4.4,0,8.9,0,13.3c0,0.9,0,2,0.1,3.2
	c0.1,1.2,0.2,2.4,0.5,3.5c0.3,1.1,0.8,2.1,1.5,2.9c0.7,0.8,1.7,1.2,3,1.2c0.5,0,1-0.1,1.4-0.2c0.4-0.1,0.7-0.3,1-0.5
	c0.3-0.2,0.5-0.3,0.7-0.5c0.2-0.1,0.4-0.2,0.7-0.2c0.3,0,0.5,0.1,0.6,0.3c0.1,0.2,0.2,0.5,0.3,0.8c0.1,0.3,0.1,0.6,0.1,0.9
	c0,0.3,0,0.5,0,0.7"/>
<path class="st1" d="M468.6,153.5c-0.1,0.1-0.2,0.2-0.3,0.4l-0.4,0.2h-1.2c-0.2-0.1-0.4-0.2-0.7-0.4c-0.2-0.2-0.4-0.4-0.4-0.6
	l-0.1-2.7c-1,1.3-2.3,2.4-3.8,3.1c-1.5,0.7-3.1,1-4.7,1c-1.7,0-3.2-0.3-4.4-0.8c-1.2-0.6-2.2-1.3-3-2.3c-0.8-1-1.4-2.1-1.7-3.5
	c-0.4-1.3-0.5-2.8-0.5-4.4c0-4.9,0.1-9.9,0.2-14.8l0.6-0.7l0.4-0.2h1.5c0.3,0,0.5,0.1,0.6,0.3c0.1,0.2,0.2,0.4,0.2,0.6
	c0,2.5-0.1,4.9-0.1,7.4c0,2.4,0,4.9,0,7.4c0,1,0.1,1.9,0.3,2.9c0.2,0.9,0.6,1.8,1,2.5c0.5,0.7,1.1,1.3,1.9,1.7
	c0.8,0.4,1.8,0.7,2.9,0.7c1.1,0,2.2-0.2,3.2-0.7c1-0.4,1.9-1,2.7-1.8c0.8-0.8,1.4-1.7,1.8-2.7c0.4-1,0.7-2.1,0.7-3.2
	c0-1.2,0-2.3,0-3.5c0-1.2,0-2.4,0-3.5v-7c0.1-0.4,0.3-0.7,0.6-0.9l0.4-0.2h1.4l0.4,0.2c0.3,0.2,0.5,0.5,0.6,0.9V153
	C468.8,153.2,468.7,153.4,468.6,153.5"/>
<path class="st1" d="M495.1,150.6c-0.5,0.9-1.2,1.6-2.1,2.2c-0.9,0.5-1.9,0.9-3,1.2c-1.1,0.3-2.2,0.4-3.3,0.4
	c-1.2,0-2.4-0.1-3.6-0.3c-1.2-0.2-2.4-0.5-3.5-1l-0.4-0.7v-1.9c0-0.3,0.1-0.5,0.3-0.7c0.2-0.2,0.5-0.3,0.8-0.3c0.3,0,0.6,0.1,1,0.3
	c0.4,0.2,0.9,0.4,1.5,0.6c0.6,0.2,1.2,0.4,1.9,0.6c0.7,0.2,1.4,0.3,2.1,0.3c0.6,0,1.3-0.1,1.9-0.2c0.7-0.1,1.3-0.3,1.8-0.6
	c0.5-0.3,1-0.7,1.3-1.2c0.3-0.5,0.5-1.1,0.5-1.9c0-1-0.3-1.8-1-2.4c-0.7-0.6-1.5-1.2-2.4-1.7c-1-0.5-2-1-3.2-1.4
	c-1.1-0.5-2.2-1-3.2-1.7c-1-0.7-1.8-1.5-2.4-2.5c-0.7-1-1-2.3-1-3.8c0-1.2,0.2-2.1,0.7-2.9c0.5-0.8,1.1-1.5,1.8-2
	c0.8-0.5,1.6-0.9,2.6-1.1c1-0.2,2-0.4,3-0.4c2.4,0,4.7,0.3,7,1c0.1,0.1,0.2,0.3,0.3,0.4c0.1,0.1,0.2,0.3,0.3,0.5v1.5
	c0,0.2-0.1,0.4-0.2,0.7c-0.2,0.2-0.4,0.4-0.6,0.4c-0.5,0-1.1-0.1-1.6-0.2c-0.6-0.1-1.1-0.3-1.7-0.4c-0.6-0.2-1.1-0.3-1.7-0.5
	c-0.6-0.1-1.1-0.2-1.7-0.2c-0.5,0-1.1,0-1.6,0.1c-0.6,0.1-1.1,0.3-1.5,0.5c-0.5,0.3-0.8,0.6-1.1,1c-0.3,0.4-0.4,0.9-0.4,1.6
	c0,1,0.3,1.9,1,2.5c0.7,0.6,1.5,1.2,2.4,1.7c1,0.5,2,1,3.2,1.4c1.2,0.5,2.2,1,3.2,1.7c1,0.7,1.8,1.5,2.4,2.5c0.7,1,1,2.3,1,3.8
	C495.9,148.7,495.6,149.8,495.1,150.6"/>
<path class="st1" d="M118.7,11.1h23.8V8.2h-23.8V11.1z M122.7,40.4V12.9h16V26"/>
<polyline class="st1" points="243.6,4.1 212.4,38.3 226,49.4 256.8,15.3 "/>
<line class="st0" x1="327.5" y1="20" x2="398" y2="78.7"/>
<polyline class="st1" points="324.5,4.1 293.3,38.3 306.9,49.4 337.8,15.3 "/>
</svg>
