<?xml version="1.0" encoding="utf-8"?>
<!-- Generator: Adobe Illustrator 25.2.3, SVG Export Plug-In . SVG Version: 6.00 Build 0)  -->
<svg version="1.1" id="Layer_1" xmlns="http://www.w3.org/2000/svg" xmlns:xlink="http://www.w3.org/1999/xlink" x="0px" y="0px"
	 viewBox="0 0 741.3 212.8" style="enable-background:new 0 0 741.3 212.8;" xml:space="preserve">
<style type="text/css">
	.st0{fill:#FFFFFF;}
	.st1{opacity:0.35;clip-path:url(#SVGID_2_);}
	.st2{clip-path:url(#SVGID_4_);}
	.st3{clip-path:url(#SVGID_6_);fill:#FFFFFF;}
	.st4{clip-path:url(#SVGID_8_);fill:#FFFFFF;}
	.st5{opacity:0.23;clip-path:url(#SVGID_10_);}
	.st6{clip-path:url(#SVGID_12_);}
	.st7{clip-path:url(#SVGID_14_);fill:#FFFFFF;}
	.st8{opacity:0.7;clip-path:url(#SVGID_10_);}
	.st9{clip-path:url(#SVGID_16_);}
	.st10{clip-path:url(#SVGID_18_);fill:#FFFFFF;}
</style>
<g id="Torus_Landscape_Mono_1_">
	<g id="Artwork_1_2_">
		<g>
			<path class="st0" d="M291.9,47.2c3.5-4.1,8.2-7.2,12.3-7.2h6.1v23.8h36.5v10.7c0,5.5-4.9,12.5-15.6,12.5h-20.9v41.2
				c0,13.7,6.1,18.9,16.6,18.9c8.4,0,14.8-1.2,18.9-3.7h1v9.4c0,10.7-7.8,17.6-23,17.6c-26.5,0-39.4-14.4-39.4-39V68.1
				C284.3,57.8,286.2,53.9,291.9,47.2"/>
			<path class="st0" d="M409.8,61.5c31.6,0,49.8,25.4,49.8,53.3c0,31.6-18.2,56.8-52.1,56.8c-31.6,0-49.8-25.2-49.8-53.1
				C357.7,86.9,375.9,61.5,409.8,61.5 M407.5,84.9c-15,0-22.6,12.5-22.6,29.9c0,20.9,7.6,33.4,25,33.4c15.2,0,22.6-12.5,22.6-29.7
				C432.5,97.4,424.7,84.9,407.5,84.9"/>
			<path class="st0" d="M535.2,89.4c-3.9-1.6-8.4-3.1-15.2-3.1c-11.7,0-18.2,6.4-18.2,22.4v60.5h-7.2c-11.7,0-19.1-5.9-19.1-16.8
				V104c0-21.1,11.1-41.2,38.8-41.2c16.2,0,21.9,9.2,21.9,17.2v9.4H535.2z"/>
			<path class="st0" d="M598.6,171.6c-26,0-46.5-17.2-46.5-47.8V63.8h4.9c15,0,21.7,6.4,21.7,18.7v38.7c0,19.3,9.4,27.1,21.3,27.1
				c10.7,0,18.3-7.4,18.3-25.4V63.8h4.7c15.2,0,21.7,6.4,21.7,18.7V122C644.6,154.8,629.2,171.6,598.6,171.6"/>
			<path class="st0" d="M697.4,171.6c-19.3,0-33.8-10-33.8-20.7V139h1c5.7,5.3,19.1,10,31.6,10c12.9,0,19.1-3.7,19.1-11.5
				c0-6.1-3.7-9-21.9-11.5c-22.3-3.1-33-11.9-33-27.9c0-19.7,17.8-36.5,44.7-36.5c23.8,0,33.6,12.3,33.6,22.4v10h-1
				c-5.5-5.5-17.6-9.8-30.1-9.8c-16,0-21.1,4.9-21.1,11.7c0,5.3,3.1,7.4,21.1,10.3c21.9,3.5,33.6,13.1,33.6,29.9
				C741.3,158.3,725.7,171.6,697.4,171.6"/>
			<g>
				<defs>
					<path id="SVGID_1_" d="M618.3,63.8V123c0,18-7.6,25.4-18.3,25.4c-11.9,0-21.3-7.8-21.3-27.1V82.6c0-12.3-6.6-18.7-21.7-18.7
						h-4.9v59.9c0,30.6,20.5,47.8,46.5,47.8c30.6,0,46.1-16.8,46.1-49.6V82.6c0-12.3-6.4-18.7-21.7-18.7H618.3z M475.5,104v48.4
						c0,10.9,7.4,16.8,19.1,16.8h7.2v-60.5c0-16,6.4-22.4,18.2-22.4c6.8,0,11.3,1.6,15.2,3.1h1V80c0-8-5.7-17.2-21.9-17.2
						C486.6,62.9,475.5,83,475.5,104 M384.9,114.8c0-17.4,7.6-29.9,22.6-29.9c17.2,0,25,12.5,25,33.6c0,17.2-7.4,29.7-22.6,29.7
						C392.5,148.2,384.9,135.7,384.9,114.8 M357.7,118.5c0,27.9,18.2,53.1,49.8,53.1c34,0,52.1-25.2,52.1-56.8
						c0-27.9-18.2-53.3-49.8-53.3C375.9,61.5,357.7,86.9,357.7,118.5 M660.5,98c0,16,10.7,24.8,33,27.9c18.2,2.5,21.9,5.5,21.9,11.5
						c0,7.8-6.2,11.5-19.1,11.5c-12.5,0-26-4.7-31.6-10h-1v11.9c0,10.7,14.4,20.7,33.8,20.7c28.3,0,43.9-13.3,43.9-35.5
						c0-16.8-11.7-26.4-33.6-29.9c-18-2.9-21.1-5.1-21.1-10.3c0-6.8,5.1-11.7,21.1-11.7c12.5,0,24.6,4.3,30.1,9.8h1v-10
						c0-10.2-9.8-22.4-33.6-22.4C678.3,61.5,660.5,78.3,660.5,98 M304.2,40c-4.1,0-8.8,3.1-12.3,7.2c-5.7,6.6-7.6,10.5-7.6,20.9
						v63.2c0,24.6,12.9,39,39.4,39c15.2,0,23-6.8,23-17.6v-9.4h-1c-4.1,2.5-10.5,3.7-18.9,3.7c-10.5,0-16.6-5.3-16.6-18.9V87.1h20.9
						c10.7,0,15.6-7,15.6-12.5V63.8h-36.5V40H304.2z"/>
				</defs>
				<use xlink:href="#SVGID_1_"  style="overflow:visible;fill:#FFFFFF;"/>
				<clipPath id="SVGID_2_">
					<use xlink:href="#SVGID_1_"  style="overflow:visible;"/>
				</clipPath>
				<g class="st1">
					<g>
						<defs>
							<rect id="SVGID_3_" x="242.7" y="54.7" width="526.3" height="126.1"/>
						</defs>
						<use xlink:href="#SVGID_3_"  style="overflow:visible;fill:#FFFFFF;"/>
						<clipPath id="SVGID_4_">
							<use xlink:href="#SVGID_3_"  style="overflow:visible;"/>
						</clipPath>
						<g class="st2">
							<defs>
								<rect id="SVGID_5_" x="242.7" y="54.7" width="526.3" height="126.1"/>
							</defs>
							<use xlink:href="#SVGID_5_"  style="overflow:visible;fill:#FFFFFF;"/>
							<clipPath id="SVGID_6_">
								<use xlink:href="#SVGID_5_"  style="overflow:visible;"/>
							</clipPath>
							<path class="st3" d="M242.7,54.7c0,0,86.4,130.4,525.9,42.3l0.4,83.8H242.7V54.7z"/>
						</g>
					</g>
				</g>
			</g>
			<g>
				<defs>
					<path id="SVGID_7_" d="M45.2,143.6C24.5,114,29,80.4,56.1,53.9c34.9-35.1,88.2-35.5,114.9,8.3c20.5,32.7,13,77.6-14.3,103.2
						c-13.1,12.8-28.2,18.4-43.4,18.4C87.9,183.7,62.3,168,45.2,143.6 M47.7,22.5C-4.5,66-12.7,122.7,31.1,170.3
						c35.6,39.9,90.3,57.3,132.2,27.4c52.1-35.5,65.1-115.8,20.5-165.7C164.9,10.3,138.2,0,111.6,0C88.4,0,65.4,7.8,47.7,22.5"/>
				</defs>
				<use xlink:href="#SVGID_7_"  style="overflow:visible;fill:#FFFFFF;"/>
				<clipPath id="SVGID_8_">
					<use xlink:href="#SVGID_7_"  style="overflow:visible;"/>
				</clipPath>
				
					<rect x="-55.8" y="-48" transform="matrix(0.829 -0.5592 0.5592 0.829 -45.1934 79.764)" class="st4" width="327.2" height="323.5"/>
			</g>
			<g>
				<defs>
					<path id="SVGID_9_" d="M45.2,143.6C24.5,114,29,80.4,56.1,53.9c34.9-35.1,88.2-35.5,114.9,8.3c20.5,32.7,13,77.6-14.3,103.2
						c-13.1,12.8-28.2,18.4-43.4,18.4C87.9,183.7,62.3,168,45.2,143.6 M111.6,0C88.4,0,65.4,7.8,47.7,22.5
						C-4.5,66-12.7,122.7,31.1,170.3c35.6,39.9,90.3,57.3,132.2,27.4c52.1-35.5,65.1-115.8,20.5-165.7C164.9,10.3,138.2,0,111.6,0z"
						/>
				</defs>
				<use xlink:href="#SVGID_9_"  style="overflow:visible;fill:#FFFFFF;"/>
				<clipPath id="SVGID_10_">
					<use xlink:href="#SVGID_9_"  style="overflow:visible;"/>
				</clipPath>
				<g class="st5">
					<g>
						<defs>
							<rect id="SVGID_11_" x="85.8" y="16.5" width="126.9" height="169"/>
						</defs>
						<use xlink:href="#SVGID_11_"  style="overflow:visible;fill:#FFFFFF;"/>
						<clipPath id="SVGID_12_">
							<use xlink:href="#SVGID_11_"  style="overflow:visible;"/>
						</clipPath>
						<g class="st6">
							<defs>
								<rect id="SVGID_13_" x="85.8" y="16.5" width="126.9" height="169"/>
							</defs>
							<use xlink:href="#SVGID_13_"  style="overflow:visible;fill:#FFFFFF;"/>
							<clipPath id="SVGID_14_">
								<use xlink:href="#SVGID_13_"  style="overflow:visible;"/>
							</clipPath>
							<path class="st7" d="M167.4,16.5c7.4,5.5,15.3,12.4,21.3,20.5c23,30.4,30.7,67.7,17.6,101.8c0,0-37.4,70-120.5,38.7
								c20.8,6.1,45.6,4.7,64.8-10.4c13.6-10.7,16.6-12.6,23.4-28.3C204.7,102.7,202,59,167.4,16.5"/>
						</g>
					</g>
				</g>
				<g class="st8">
					<g>
						<defs>
							<rect id="SVGID_15_" y="26.2" width="123" height="169.8"/>
						</defs>
						<use xlink:href="#SVGID_15_"  style="overflow:visible;fill:#FFFFFF;"/>
						<clipPath id="SVGID_16_">
							<use xlink:href="#SVGID_15_"  style="overflow:visible;"/>
						</clipPath>
						<g class="st9">
							<defs>
								<rect id="SVGID_17_" y="26.2" width="123" height="169.8"/>
							</defs>
							<use xlink:href="#SVGID_17_"  style="overflow:visible;fill:#FFFFFF;"/>
							<clipPath id="SVGID_18_">
								<use xlink:href="#SVGID_17_"  style="overflow:visible;"/>
							</clipPath>
							<path class="st10" d="M58.4,196.1C17.6,148,19.7,112.4,35.6,85c0.9-3.2,5.2-5.1,6.5-7.7c4.5-9,8.2-16.4,18.4-25.9
								C79.1,34.4,101,28.2,123,29c-24.8-7.3-63-0.2-88,20.3C22.3,59.8,9.1,78.7,3.3,88.9c-9.5,28.3,2.5,53.9,26.7,81.8
								C36.4,178.1,51,190.2,58.4,196.1"/>
						</g>
					</g>
				</g>
			</g>
		</g>
	</g>
</g>
</svg>
