<?xml version="1.0" encoding="utf-8"?>
<!-- Generator: Adobe Illustrator 25.2.3, SVG Export Plug-In . SVG Version: 6.00 Build 0)  -->
<svg version="1.1" id="Layer_1" xmlns="http://www.w3.org/2000/svg" xmlns:xlink="http://www.w3.org/1999/xlink" x="0px" y="0px"
	 viewBox="0 0 152.7 170.3" style="enable-background:new 0 0 152.7 170.3;" xml:space="preserve">
<style type="text/css">
	.st0{fill:#FFFFFF;}
</style>
<g id="UOR-WHITE_1_">
	<g>
		<path class="st0" d="M61.1,141.2c-3.2,0-5.1,2.3-5.1,6.1c0,3.8,2,6.2,5.1,6.2c3.2,0,5.1-2.4,5.1-6.2
			C66.2,143.5,64.3,141.2,61.1,141.2z"/>
		<path class="st0" d="M65.5,92.9c4.1,0,4.4-4.4,4.4-5.7V83c-0.9-1.4-2.4-2.2-4.3-2.2c-3,0-4.7,2.2-4.7,6.3
			C60.9,92.2,63.8,92.9,65.5,92.9z"/>
		<path class="st0" d="M70.1,113.6c0-1.6-1.7-2.8-4-2.8c-2.6,0-4.7,2.1-4.9,4.7c0.9,0.3,2.8,0.7,4.5,0.7
			C68.7,116.2,70.1,115.3,70.1,113.6z"/>
		<path class="st0" d="M39.6,141.2c-3.2,0-5.1,2.3-5.1,6.1c0,3.8,2,6.2,5.1,6.2c3.2,0,5.1-2.4,5.1-6.2
			C44.7,143.5,42.8,141.2,39.6,141.2z"/>
		<path class="st0" d="M25.3,123.2c3.2,0,5.1-2.4,5.1-6.2c0-3.8-1.9-6.1-5.1-6.1c-3.2,0-5.1,2.3-5.1,6.1
			C20.2,120.9,22.1,123.2,25.3,123.2z"/>
		<path class="st0" d="M146,53.2L79.1,3c-1.5-1.1-3.6-1.1-5.1,0L7.2,53.2c-1.5,1.1-2.4,2.9-2.4,4.8v105.4c0,2.6,2.1,4.8,4.8,4.8h134
			c2.6,0,4.8-2.1,4.8-4.8V57.9C148.4,56.1,147.5,54.3,146,53.2z M65,76.7c2.4,0,4.1,1,4.9,1.7v-7.7c0-1.4,0.7-2.1,2.2-2.1h0.3
			c1.4,0,2.2,0.7,2.2,2.1v23.8c0,1.4-0.6,2-2.2,2H72c-1.4,0-2.1-0.6-2.1-1.8V94c-1,1.4-2.9,2.8-5.5,2.8c-5,0-8.1-3.6-8.1-9.7
			C56.3,80.6,59.6,76.7,65,76.7z M67.1,123.4c3.5,0,4.7-1.6,5.1-2.2l0.1-0.1l0.2,0c1,0.3,1.6,1,1.6,2c0,2-2.7,4.1-7.2,4.1
			c-4.8,0-10-2.6-10-10c0-7,4.8-10.2,9.5-10.2c4.5,0,7.7,2.7,7.7,6.5c0,3.5-2.9,5.7-7.5,5.7c-2.3,0-4.3-0.4-5.4-0.8
			C61.3,121.3,63.8,123.4,67.1,123.4z M36.7,79.2c0-1.5,0.7-2.1,2.2-2.1H39c1.5,0,2.2,0.6,2.2,2.1V80c1-1.7,2.9-3.2,5.7-3.2
			c2.1,0,7,0.8,7,7.8v9.9c0,1.5-0.7,2.1-2.2,2.1h-0.3c-1.4,0-2.1-0.7-2.1-2.1v-9.3c0-3-1.2-4.3-3.8-4.3c-2.6,0-4.3,2.3-4.3,5.8v7.8
			c0,1.5-0.7,2.1-2.2,2.1h-0.2c-1.5,0-2.2-0.6-2.2-2.1V79.2z M16.2,80.5c0-2.3,0.2-3.4,2.3-3.4c2.1,0,2.3,1.1,2.3,3.5v7.7
			c0,3.1,1.2,4.6,3.8,4.6c3.9,0,4.2-4.6,4.2-6v-6.3c0-0.2,0-0.4,0-0.6c0-1,0-1.8,0.5-2.3c0.4-0.4,0.9-0.5,1.7-0.5h0.3
			c0.8,0,1.3,0.2,1.6,0.5c0.5,0.5,0.5,1.4,0.5,2.8l0,14.1c0,1.5-0.1,2.1-2.3,2.1c-1.6,0-2.3-0.6-2.3-2.1v-0.7c-0.9,1.5-2.9,3-5.9,3
			c-4.3,0-6.7-2.8-6.7-7.8V80.5z M18.6,109.5c1.8-1.6,4.1-2.5,6.7-2.5s5,0.9,6.7,2.5c2,1.8,3,4.4,3,7.6c0,6.9-4.9,10-9.7,10
			s-9.7-3.1-9.7-10C15.5,114,16.6,111.3,18.6,109.5z M28.5,142.3l-0.1,0.1l-0.1-0.1c-0.6-0.4-1.4-0.8-2.5-0.8
			c-3.4,0-4.6,3.2-4.6,6.3l0,5.5c0,1.3,0,2.6-0.7,3.4c-0.3,0.3-0.8,0.5-1.5,0.5h-0.3c-1,0-1.6-0.2-1.9-0.8c-0.3-0.5-0.3-1.3-0.3-2.3
			v-13.1c0-2.3,0.1-3.3,2.3-3.3c1.8,0,2.1,1.4,2.2,2.9c0.7-1.2,2.3-3.1,4.8-3.1c2.1,0,3.5,1,3.5,2.7
			C29.5,141.3,28.9,141.9,28.5,142.3z M39.6,157.4c-4.8,0-9.7-3.1-9.7-10c0-3.1,1-5.8,3-7.6c1.8-1.6,4.1-2.5,6.7-2.5
			c2.6,0,5,0.9,6.7,2.5c2,1.8,3,4.4,3,7.6C49.3,154.3,44.4,157.4,39.6,157.4z M50.1,124.7v-9.3c0-3-1.2-4.3-3.8-4.3
			c-2.6,0-4.3,2.3-4.3,5.8v7.8c0,1.5-0.7,2.1-2.2,2.1h-0.2c-1.5,0-2.2-0.6-2.2-2.1v-15.3c0-1.5,0.7-2.1,2.2-2.1h0.2
			c1.5,0,2.2,0.6,2.2,2.1v0.8c1-1.7,2.9-3.2,5.7-3.2c2.1,0,7,0.8,7,7.8v9.9c0,1.5-0.7,2.1-2.2,2.1h-0.3
			C50.8,126.9,50.1,126.2,50.1,124.7z M61.1,157.4c-4.8,0-9.7-3.1-9.7-10c0-3.1,1-5.8,3-7.6c1.8-1.6,4.1-2.5,6.7-2.5s5,0.9,6.7,2.5
			c2,1.8,3,4.4,3,7.6C70.9,154.3,66,157.4,61.1,157.4z M85.5,134.7l-0.2,0.1l-0.1-0.1c-0.4-0.6-1.2-1.2-2.9-1.2
			c-2.1,0-3.2,1.6-3.2,4.5v0.2h3.9c1.4,0,2.1,0.6,2.1,2c0,1.6-1.1,1.8-2.1,1.8h-3.9v13.3c0,1.5-0.6,2.1-2.2,2.1h-0.2
			c-1.6,0-2.2-0.6-2.2-2.1v-13.3h-1.5c-1.3,0-1.9-0.5-1.9-1.8c0-1.4,0.6-2,1.9-2h1.5v-1.2c0-4.8,2.8-7.6,7.6-7.6
			c2.8,0,4.7,1.3,4.7,3.3C87,133.5,86.4,134.4,85.5,134.7z M87.3,93.2c3.5,0,4.7-1.6,5.1-2.2l0.1-0.1l0.2,0c1,0.3,1.6,1,1.6,2
			c0,2-2.7,4.1-7.2,4.1c-4.8,0-10-2.6-10-10c0-7,4.8-10.2,9.5-10.2c4.5,0,7.7,2.7,7.7,6.5c0,3.5-2.9,5.7-7.5,5.7
			c-2.3,0-4.3-0.4-5.4-0.8C81.5,91.1,84,93.2,87.3,93.2z M108.7,81.8l-0.1,0.1l-0.1-0.1c-0.6-0.4-1.4-0.8-2.5-0.8
			c-3.4,0-4.6,3.2-4.6,6.3l0,5.5c0,1.3,0,2.6-0.7,3.4c-0.3,0.3-0.8,0.5-1.5,0.5H99c-1,0-1.6-0.2-1.9-0.8c-0.3-0.5-0.3-1.3-0.3-2.3
			V80.3c0-2.3,0.1-3.3,2.3-3.3c1.8,0,2.1,1.4,2.2,2.9c0.7-1.2,2.3-3.1,4.8-3.1c2.1,0,3.5,1,3.5,2.7
			C109.7,80.8,109.1,81.4,108.7,81.8z"/>
		<path class="st0" d="M90.3,83.3c0-1.6-1.7-2.8-4-2.8c-2.6,0-4.7,2.1-4.9,4.7c0.9,0.3,2.8,0.7,4.5,0.7C88.8,85.9,90.3,85,90.3,83.3
			z"/>
	</g>
</g>
</svg>
